<svg width="109" height="53" viewBox="0 0 109 53" fill="none" xmlns="http://www.w3.org/2000/svg">
<path fill-rule="evenodd" clip-rule="evenodd" d="M0 45.0962H109V52.504H0V45.0962Z" fill="white"/>
<path fill-rule="evenodd" clip-rule="evenodd" d="M39.9669 35.8369V15.9404H45.4168V43.2446H34.5169C36.3335 43.2446 39.9669 39.5407 39.9669 35.8369ZM39.9669 7.58302V6.20593H45.4168V7.58302H39.9669Z" fill="white"/>
<path fill-rule="evenodd" clip-rule="evenodd" d="M92.6501 22.8733V17.3175H105.367V43.2445H85.3835V22.8733H92.6501Z" fill="white"/>
<path fill-rule="evenodd" clip-rule="evenodd" d="M16.3499 35.8366V17.3173H3.63326V43.2444H23.6166C19.9833 43.2444 16.3499 39.5404 16.3499 35.8366Z" fill="white"/>
<path fill-rule="evenodd" clip-rule="evenodd" d="M0 8.29525H109V15.228H0V8.29525Z" fill="white"/>
<path fill-rule="evenodd" clip-rule="evenodd" d="M25.4334 17.3175H32.7V35.8368C32.7 37.6887 30.8833 39.5406 29.0666 39.5406C27.25 39.5406 25.4334 37.6887 25.4334 35.8368V17.3175Z" fill="white"/>
<path fill-rule="evenodd" clip-rule="evenodd" d="M76.2999 22.8733H69.0333V17.3175H65.3999V22.8733H54.4999V28.4291H61.7665V33.9848H54.4999V43.2445H76.2999V22.8733Z" fill="white"/>
<path fill-rule="evenodd" clip-rule="evenodd" d="M3.63334 0.649902H39.9667L39.9669 6.20593L3.63326 6.20582L3.63334 0.649902Z" fill="white"/>
<path fill-rule="evenodd" clip-rule="evenodd" d="M105.367 0.649902H45.4166L45.4168 6.20593L105.367 6.20573V0.649902Z" fill="white"/>
</svg>
